<?xml version="1.0" encoding="utf-8"?>
<!-- Generator: Adobe Illustrator 13.0.0, SVG Export Plug-In . SVG Version: 6.00 Build 14948)  -->
<!DOCTYPE svg PUBLIC "-//W3C//DTD SVG 1.1//EN" "http://www.w3.org/Graphics/SVG/1.1/DTD/svg11.dtd">
<svg version="1.1" id="Layer_1" xmlns="http://www.w3.org/2000/svg" xmlns:xlink="http://www.w3.org/1999/xlink" x="0px" y="0px"
	 width="512px" height="512px" viewBox="0 0 512 512" style="enable-background:new 0 0 512 512;" xml:space="preserve">
<style type="text/css">
<![CDATA[
	.st0{fill:#FFFFFF;}
]]>
</style>
<g>
	<g>
		<path class="st0" d="M434.2,256.2c0-8.8-3.9-15.6-10.4-19.2l-62.6-62.9c-8.8-8.8-22.1-8.8-30.9,0c-8.8,8.8-8.8,22.1,0,30.9
			l28.8,28.8h-204l28.6-28.6c8.8-8.8,8.8-22.1,0-30.9c-8.8-8.8-22.1-8.8-30.9,0l-62.6,62.6c-6.5,3.6-10.4,10.4-10.4,19.2l0,0
			c0,8.8,3.9,15.6,10.4,19.2l62.6,62.6c4.4,4.4,8.8,6.8,15.6,6.8c6.8,0,11.2-2.3,15.6-6.8c8.8-8.8,8.8-22.1,0-30.9l-28.8-28.8h203.7
			L330,307.1c-8.8,8.8-8.8,22.1,0,30.9c4.4,4.4,8.8,6.8,15.6,6.8c6.8,0,11.2-2.3,15.6-6.8l62.6-62.6
			C430.3,271.8,434.2,265,434.2,256.2z"/>
	</g>
</g>
</svg>
