<?xml version="1.0" encoding="utf-8"?>
<!-- Generator: Adobe Illustrator 13.0.0, SVG Export Plug-In . SVG Version: 6.00 Build 14948)  -->
<!DOCTYPE svg PUBLIC "-//W3C//DTD SVG 1.1//EN" "http://www.w3.org/Graphics/SVG/1.1/DTD/svg11.dtd">
<svg version="1.1" id="Layer_1" xmlns="http://www.w3.org/2000/svg" xmlns:xlink="http://www.w3.org/1999/xlink" x="0px" y="0px"
	 width="512px" height="512px" viewBox="0 0 512 512" style="enable-background:new 0 0 512 512;" xml:space="preserve">
<style type="text/css">
<![CDATA[
	.st0{fill:#FFFFFF;}
]]>
</style>
<g transform="translate(1 1)">
	<g>
		<g>
			<path class="st0" d="M256.1,90.9c-8.8,0-15.6,3.9-19.2,10.4L174,163.9c-8.8,8.8-8.8,22.1,0,30.9c8.8,8.8,22.1,8.8,30.9,0
				l28.8-28.8v204l-28.6-28.6c-8.8-8.8-22.1-8.8-30.9,0c-8.8,8.8-8.8,22.1,0,30.9l62.6,62.6c3.6,6.5,10.4,10.4,19.2,10.4l0,0
				c8.8,0,15.6-3.9,19.2-10.4l62.6-62.6c4.4-4.4,6.8-8.8,6.8-15.6c0-6.8-2.3-11.2-6.8-15.6c-8.8-8.8-22.1-8.8-30.9,0L278.2,370
				V166.2l28.8,28.8c8.8,8.8,22.1,8.8,30.9,0c4.4-4.4,6.8-8.8,6.8-15.6c0-6.8-2.3-11.2-6.8-15.6l-62.6-62.6
				C271.7,94.8,264.9,90.9,256.1,90.9z"/>
		</g>
	</g>
</g>
</svg>
