<?xml version="1.0" encoding="utf-8"?>
<!-- Generator: Adobe Illustrator 13.0.0, SVG Export Plug-In . SVG Version: 6.00 Build 14948)  -->
<!DOCTYPE svg PUBLIC "-//W3C//DTD SVG 1.1//EN" "http://www.w3.org/Graphics/SVG/1.1/DTD/svg11.dtd">
<svg version="1.1" id="Layer_1" xmlns="http://www.w3.org/2000/svg" xmlns:xlink="http://www.w3.org/1999/xlink" x="0px" y="0px"
	 width="512px" height="512px" viewBox="0 0 512 512" style="enable-background:new 0 0 512 512;" xml:space="preserve">
<style type="text/css">
<![CDATA[
	.st0{fill:#FFFFFF;}
]]>
</style>
<g transform="translate(1 1)">
	<g>
		<g>
			<path class="st0" d="M412.2,33.1c0-3.4-1.5-6-4-7.4L384.1,1.6c-3.4-3.4-8.5-3.4-11.9,0c-3.4,3.4-3.4,8.5,0,11.9l11.1,11.1h-78.5
				l11.1-11.1c3.4-3.4,3.4-8.5,0-11.9c-3.4-3.4-8.5-3.4-11.9,0l-24.1,24.1c-2.5,1.4-4,4-4,7.4l0,0c0,3.4,1.5,6,4,7.4L304,64.6
				c1.7,1.7,3.4,2.6,6,2.6c2.6,0,4.3-0.9,6-2.6c3.4-3.4,3.4-8.5,0-11.9l-11.1-11.1h78.5l-11.1,11.1c-3.4,3.4-3.4,8.5,0,11.9
				c1.7,1.7,3.4,2.6,6,2.6s4.3-0.9,6-2.6l24.1-24.1C410.6,39.2,412.2,36.5,412.2,33.1z"/>
			<path class="st0" d="M370.3,178.2c-9.4,0-18.8,3.4-25.6,8.5v-8.5c0-23.9-18.8-42.7-42.7-42.7c-9.4,0-18.8,3.4-25.6,8.5
				c0-23.9-18.8-42.7-42.7-42.7c-9.4,0-18.8,3.4-25.6,8.5V41.7c0-23.9-18.8-42.7-42.7-42.7s-42.7,18.8-42.7,42.7v193.7
				c-18.8-32.4-62.3-48.6-95.6-36.7c-4.3,0.9-7.7,3.4-11.9,6c-12.8,8.5-11.9,19.6-11.9,23c-0.9,5.1,0,6,11.9,19.6
				c14.5,17.1,46.1,52.9,65.7,88.7c1.7,1.7,24.7,39.3,50.3,67.4v22.2c0,46.9,38.4,85.3,85.3,85.3h85.3c36.7,0,75.1-30.7,83.6-66.6
				c2.6-10.2,5.1-17.9,8.5-21.3c8.5-10.2,18.8-34.1,18.8-65.7V220.9C413,197,394.2,178.2,370.3,178.2z M302.9,493.9h-85.3
				c-37.5,0-68.3-30.7-68.3-68.3v-7.7c1.7,1.2,3.4,2.4,5.1,3.5c5.1,4.3,9.4,6.8,14.5,11.1c1.7,0.9,3.4,1.7,5.1,1.7
				c2.6,0,5.1-0.9,6-3.4c3.4-3.4,2.6-8.5-0.9-11.9c-5.1-5.1-10.2-8.5-15.4-11.9c-5.9-4.2-11.8-8.5-17.7-13.5
				c-25.4-26.5-49.7-65.9-49.7-65.9c-20.5-36.7-52.9-73.4-68.3-91.3c-2.6-3.4-6-7.7-7.7-9.4c0-2.6,0-4.3,6-7.7
				c3.4-1.7,6-3.4,8.5-4.3c22.2-7.7,58.9,2.6,75.1,30.7l13.2,19.8c0.1,0.5,0.3,1,0.5,1.5l8.5,17.1c1.7,3.4,4.3,5.1,7.7,5.1
				c1.7,0,2.6,0,3.4-1.7c3.4-1.7,5.1-6.8,3.4-11.1l-6-12c0-0.3,0-0.5,0-0.8V41.7c0-14.5,11.1-25.6,25.6-25.6s25.6,11.1,25.6,25.6
				v132.5c-0.6,1.2-0.9,2.5-0.9,4v102.4c0,5.1,3.4,8.5,8.5,8.5s8.5-3.4,8.5-8.5v-98.4c0.5-1.2,0.9-2.5,0.9-4v-34.1
				c0-14.5,11.1-25.6,25.6-25.6s25.6,11.1,25.6,25.6v34.1v93.9c0,5.1,3.4,8.5,8.5,8.5s8.5-3.4,8.5-8.5v-93.9
				c0-14.5,11.1-25.6,25.6-25.6s25.6,11.1,25.6,25.6v42.7v59.7c0,5.1,3.4,8.5,8.5,8.5c5.1,0,8.5-3.4,8.5-8.5v-59.7
				c0-14.5,11.1-25.6,25.6-25.6s25.6,11.1,25.6,25.6v136.5c0,15.9-3.1,28.7-6.7,38c-0.8,0.8-1.4,1.8-1.9,3
				c-3.4,11.1-13.7,13.7-32.4,18.8l-5.1,0.9c-4.3,0.9-6.8,6-6,10.2c1.7,3.4,5.1,6,8.5,6c0.9,0,1.7,0,2.6,0h4.3
				c3.9-1.1,7.8-2.1,11.7-3.3c-0.9,2.9-1.6,6-2.3,9.2C363.5,469.2,331.9,493.9,302.9,493.9z"/>
		</g>
	</g>
</g>
</svg>
